<?xml version="1.0" standalone="no"?>
<!DOCTYPE svg PUBLIC "-//W3C//DTD SVG 20010904//EN"
 "http://www.w3.org/TR/2001/REC-SVG-20010904/DTD/svg10.dtd">
<svg version="1.0" xmlns="http://www.w3.org/2000/svg"
 width="800.000000pt" height="800.000000pt" viewBox="0 0 800.000000 800.000000"
 preserveAspectRatio="xMidYMid meet">
<metadata>
Created by potrace 1.14, written by Peter Selinger 2001-2017
</metadata>
<g transform="translate(0.000000,800.000000) scale(0.100000,-0.100000)"
fill="#000000" stroke="none">
<path d="M3436 7489 c-49 -5 -137 -20 -197 -35 -87 -21 -120 -34 -176 -71 -64
-43 -213 -160 -213 -168 0 -2 145 -81 323 -176 355 -190 425 -229 416 -229 -4
0 -69 30 -145 66 -192 91 -435 201 -521 235 -61 25 -76 27 -98 17 -53 -24 -45
-104 18 -178 97 -114 276 -312 366 -404 197 -203 322 -284 495 -320 l59 -12
19 -63 c55 -179 193 -330 418 -456 128 -72 235 -109 386 -135 119 -21 284 -28
341 -16 28 7 32 13 62 109 36 119 47 171 56 287 31 385 -182 863 -540 1213
-222 218 -500 328 -859 341 -66 3 -161 1 -210 -5z"/>
<path d="M2606 6813 c511 -496 923 -1153 1201 -1917 l55 -151 -12 -65 c-11
-56 -10 -75 4 -129 9 -35 14 -66 12 -69 -11 -10 -37 10 -73 56 -21 27 -51 58
-68 69 -97 64 -128 84 -131 80 -2 -2 9 -40 23 -85 19 -57 41 -99 70 -135 24
-28 43 -55 43 -58 0 -15 -52 1 -92 28 -54 37 -104 55 -134 47 -43 -11 -521
323 -756 528 -432 378 -723 717 -986 1148 -68 111 -71 106 -16 -28 143 -348
489 -768 936 -1134 206 -170 473 -359 713 -506 l100 -61 39 -93 c22 -51 50
-107 63 -125 16 -22 22 -40 18 -56 -17 -66 137 -485 262 -717 157 -289 260
-409 492 -568 179 -123 242 -178 277 -238 l25 -43 37 72 c37 71 38 72 301 274
195 151 275 206 306 214 l43 11 -35 46 c-43 56 -96 169 -147 312 -46 132 -75
187 -153 297 -60 86 -243 274 -352 363 -184 151 -468 337 -547 359 -32 9 -49
24 -94 87 -30 42 -76 95 -101 118 -35 30 -51 55 -64 96 -60 186 -197 528 -297
740 -259 548 -618 1023 -948 1254 -112 79 -114 76 -14 -21z"/>
<path d="M1409 6011 c-23 -19 -23 -19 -11 -107 11 -72 119 -634 137 -709 l5
-20 -9 20 c-5 11 -44 153 -86 315 -122 469 -128 490 -138 490 -18 0 -153 -101
-204 -152 -37 -38 -70 -88 -113 -172 -163 -321 -208 -686 -126 -1009 59 -230
268 -542 499 -745 214 -187 421 -296 662 -348 86 -18 330 -22 395 -7 l35 9 17
124 c55 418 56 475 5 645 -74 243 -197 422 -345 503 l-53 29 -3 104 c-5 179
-74 344 -246 595 -49 71 -128 186 -175 256 -123 183 -185 228 -246 179z"/>
<path d="M4428 5438 c3 -100 -1 -153 -23 -283 -21 -129 -125 -572 -149 -635
-4 -11 23 -33 94 -78 55 -35 147 -99 206 -143 59 -44 108 -78 109 -77 1 2 12
22 24 45 105 208 200 638 241 1083 16 178 21 163 -52 155 -73 -8 -221 7 -357
35 -52 11 -95 20 -96 20 0 0 1 -55 3 -122z"/>
<path d="M5250 5473 c21 -8 50 -34 50 -46 0 -5 -15 -6 -34 -3 -33 6 -106 -14
-106 -29 0 -3 29 -46 65 -96 99 -137 100 -140 100 -249 -1 -85 -5 -108 -42
-215 -23 -66 -44 -132 -47 -147 -3 -15 -56 -91 -118 -170 -119 -152 -188 -251
-233 -336 -16 -30 -40 -62 -54 -73 l-24 -19 55 -55 55 -55 28 28 c110 109 392
505 470 662 37 73 38 78 40 195 1 66 7 167 13 225 13 118 4 237 -21 287 -32
62 -107 104 -182 102 -16 0 -23 -3 -15 -6z"/>
<path d="M5914 5022 c-6 -4 -42 -54 -80 -112 -94 -142 -178 -230 -257 -267
-79 -39 -134 -98 -192 -210 -25 -48 -61 -107 -79 -130 -19 -23 -42 -68 -52
-100 -28 -90 -142 -251 -219 -311 -18 -14 -25 -26 -19 -30 6 -4 23 -26 38 -49
14 -24 31 -43 36 -43 21 0 261 272 327 370 53 79 140 235 173 311 25 57 50 92
110 154 47 48 116 139 175 229 87 133 96 151 86 172 -11 24 -27 30 -47 16z"/>
<path d="M6300 4360 c-120 -33 -268 -84 -322 -111 -21 -11 -45 -19 -56 -19
-27 0 -174 -77 -285 -149 -70 -45 -110 -80 -138 -117 -60 -81 -211 -191 -318
-230 -25 -10 -47 -18 -49 -19 -2 -2 57 -137 63 -144 2 -1 41 26 87 61 103 80
211 153 303 203 95 52 163 99 273 188 71 57 104 77 135 82 23 3 141 41 262 84
217 77 220 78 238 59 45 -46 80 10 56 89 l-15 48 -64 2 c-45 1 -97 -7 -170
-27z"/>
<path d="M2537 3948 c-17 -156 -19 -171 -38 -291 -6 -38 -7 -73 -3 -77 11 -11
205 -44 384 -66 74 -9 234 -18 355 -21 228 -5 363 4 491 32 l71 17 -42 96
c-47 107 -120 301 -131 345 l-7 29 -236 -7 c-373 -11 -639 14 -768 71 -31 13
-56 24 -58 24 -1 0 -9 -69 -18 -152z"/>
<path d="M5939 3710 c-144 -17 -296 -76 -496 -191 -41 -23 -43 -23 -72 -6 -16
9 -44 17 -62 17 -38 0 -99 -20 -99 -33 0 -4 10 -31 22 -59 l22 -50 66 4 c49 4
90 16 159 47 114 51 282 96 444 117 138 18 237 13 356 -17 87 -22 224 -86 264
-123 25 -24 27 -30 27 -111 0 -49 4 -85 10 -85 15 0 69 79 81 121 35 116 -56
202 -331 310 -47 18 -97 41 -112 51 -21 14 -45 18 -120 17 -51 -1 -123 -5
-159 -9z"/>
<path d="M3862 3354 c-12 -8 -75 -32 -139 -53 -65 -21 -200 -75 -300 -120
-204 -91 -223 -95 -478 -96 -108 0 -125 3 -176 26 -38 18 -71 44 -105 85 -27
32 -66 76 -87 98 l-37 41 -25 -28 c-16 -18 -25 -40 -25 -63 0 -44 -23 -45 -41
-1 l-13 32 -4 -55 c-11 -169 100 -238 438 -271 62 -6 125 -19 153 -31 37 -16
58 -19 100 -14 65 8 366 109 511 171 138 59 326 153 326 163 -1 4 -18 35 -39
69 -36 60 -38 62 -59 47z"/>
<path d="M5323 3130 c-32 -7 -56 -24 -293 -205 -63 -49 -144 -111 -180 -138
-77 -58 -110 -99 -140 -173 -22 -54 -22 -56 -5 -117 9 -34 29 -89 43 -121 24
-55 31 -61 87 -87 53 -25 61 -26 70 -12 117 185 191 269 325 370 95 72 243
150 349 184 54 17 70 27 67 38 -3 9 -8 37 -12 63 -8 59 -34 87 -141 150 -85
50 -121 60 -170 48z"/>
<path d="M4007 3099 c-38 -29 -170 -88 -246 -110 -44 -13 -81 -17 -115 -13
-46 5 -55 3 -93 -25 -28 -20 -73 -38 -141 -55 -125 -30 -167 -50 -212 -99
-116 -127 -143 -144 -350 -222 -113 -42 -136 -54 -138 -73 -2 -15 4 -25 22
-33 20 -9 34 -8 78 10 29 11 98 37 153 57 114 42 181 74 244 117 32 22 73 36
155 53 178 38 354 99 519 183 84 42 174 91 201 108 l49 31 -43 46 c-23 25 -46
46 -50 46 -4 0 -19 -9 -33 -21z"/>
<path d="M4115 2886 c-83 -86 -170 -147 -265 -185 -97 -40 -287 -204 -363
-314 -18 -25 -60 -81 -93 -124 -127 -162 -234 -348 -234 -405 0 -36 66 -81
113 -76 33 3 37 15 23 63 -5 15 17 53 90 150 53 72 126 174 161 227 60 92 71
102 176 174 62 42 162 122 222 178 136 125 200 179 290 241 39 27 72 50 75 53
3 2 -3 8 -12 13 -9 5 -38 25 -63 44 -25 19 -46 34 -48 34 -1 -1 -33 -34 -72
-73z"/>
<path d="M4349 2793 c-23 -39 -30 -103 -15 -135 5 -12 -13 -38 -74 -105 -176
-190 -252 -330 -306 -559 -11 -49 -12 -74 -5 -97 6 -18 17 -81 26 -140 20
-138 59 -273 91 -314 53 -69 140 -83 225 -36 27 14 47 28 45 31 -3 2 -35 11
-73 18 -92 20 -107 32 -132 106 -49 144 -49 367 0 511 58 169 168 385 245 479
51 61 81 120 90 176 6 38 5 41 -39 71 -25 17 -48 31 -50 31 -3 0 -15 -17 -28
-37z"/>
<path d="M5580 2806 c-271 -97 -488 -267 -619 -484 -40 -66 -40 -67 -27 -112
8 -25 21 -71 30 -103 18 -61 39 -79 106 -92 38 -6 18 -21 583 425 l197 155 0
45 c0 68 -16 88 -114 141 -49 27 -89 49 -90 49 0 -1 -30 -11 -66 -24z"/>
<path d="M5554 2332 c-165 -130 -330 -259 -367 -287 l-66 -50 -1 -58 c0 -72
22 -98 104 -122 l57 -17 137 99 c187 134 443 331 525 404 l67 60 0 55 c0 62
-20 118 -47 132 -10 5 -38 12 -63 15 l-45 6 -301 -237z"/>
<path d="M5994 2319 c-64 -66 -407 -334 -634 -494 -30 -21 -58 -41 -63 -45 -4
-3 0 -27 9 -53 21 -62 78 -113 135 -122 24 -3 59 -11 77 -17 28 -8 39 -6 80
18 146 85 420 286 513 376 l54 53 -3 100 c-4 117 -16 143 -83 192 l-46 32 -39
-40z"/>
<path d="M6820 2067 c-128 -10 -277 -39 -327 -64 -38 -19 -40 -21 -69 -93 -22
-52 -177 -214 -294 -306 -180 -142 -427 -290 -523 -314 -82 -21 -126 -90 -206
-324 -47 -137 -52 -176 -20 -176 17 0 20 -4 14 -22 -28 -95 -23 -130 27 -176
62 -56 317 -107 414 -83 62 16 74 26 73 65 -1 49 -9 61 -90 124 -125 98 -123
94 -115 247 7 137 24 306 31 314 15 14 17 -23 7 -136 -6 -71 -14 -168 -18
-216 l-6 -88 53 -50 c30 -28 77 -66 105 -85 47 -32 57 -35 121 -35 98 0 173
30 239 95 59 60 99 152 72 167 -100 56 -234 193 -279 286 -30 63 -55 165 -44
183 14 22 22 7 28 -45 12 -114 94 -240 222 -342 44 -35 96 -69 117 -75 81 -24
184 17 231 94 39 63 43 109 18 209 -42 167 -125 300 -225 361 -55 33 -68 48
-43 48 25 0 102 -57 150 -110 67 -75 117 -185 151 -334 7 -28 8 -28 64 -24 96
7 172 58 227 152 45 77 48 125 14 256 -16 63 -38 126 -48 140 -33 46 -101 63
-256 67 -77 2 -141 7 -143 12 -5 16 144 24 222 12 95 -14 183 -46 201 -74 8
-12 21 -51 30 -87 9 -36 21 -81 26 -100 16 -64 96 -91 137 -47 68 72 94 355
42 463 -26 52 -59 70 -128 67 -49 -2 -54 0 -49 17 8 29 -35 37 -153 27z"/>
<path d="M6120 1958 c-111 -103 -438 -340 -525 -380 -16 -7 -24 -17 -21 -27 2
-9 7 -34 11 -55 4 -22 13 -49 21 -60 20 -28 18 -53 -7 -88 -12 -16 -18 -32
-15 -35 19 -20 238 98 408 219 200 142 335 266 400 367 35 55 37 76 6 67 -67
-20 -85 -18 -109 7 -20 21 -78 48 -98 47 -3 -1 -35 -28 -71 -62z"/>
</g>
</svg>
